<svg width="16" height="16" viewBox="0 0 16 16" fill="none" xmlns="http://www.w3.org/2000/svg">
<path fill-rule="evenodd" clip-rule="evenodd" d="M10.6667 8.66659H8.66667C8.3 8.66659 8 8.96659 8 9.33325V11.3333C8 11.6999 8.3 11.9999 8.66667 11.9999H10.6667C11.0333 11.9999 11.3333 11.6999 11.3333 11.3333V9.33325C11.3333 8.96659 11.0333 8.66659 10.6667 8.66659ZM10.6667 1.99992V2.66659H5.33333V1.99992C5.33333 1.63325 5.03333 1.33325 4.66667 1.33325C4.3 1.33325 4 1.63325 4 1.99992V2.66659H3.33333C2.59333 2.66659 2.00667 3.26659 2.00667 3.99992L2 13.3333C2 14.0666 2.59333 14.6666 3.33333 14.6666H12.6667C13.4 14.6666 14 14.0666 14 13.3333V3.99992C14 3.26659 13.4 2.66659 12.6667 2.66659H12V1.99992C12 1.63325 11.7 1.33325 11.3333 1.33325C10.9667 1.33325 10.6667 1.63325 10.6667 1.99992ZM12 13.3333H4C3.63333 13.3333 3.33333 13.0333 3.33333 12.6666V5.99992H12.6667V12.6666C12.6667 13.0333 12.3667 13.3333 12 13.3333Z" fill="#5787A4"/>
</svg>
