<svg width="30" height="31" viewBox="0 0 30 31" fill="none" xmlns="http://www.w3.org/2000/svg">
<path d="M2.85547 15.9759C2.85547 9.37691 8.20504 4.02734 14.8041 4.02734C21.4031 4.02734 26.7527 9.37691 26.7527 15.9759C26.7527 22.575 21.4031 27.9245 14.8041 27.9245C8.20504 27.9245 2.85547 22.575 2.85547 15.9759Z" fill="#884CB2" fill-opacity="0.1"/>
<path d="M16.7507 17.48C16.2282 17.368 15.5761 17.2867 14.7844 17.2867C13.2196 17.2867 12.1867 17.6144 11.6304 17.8613C11.3262 17.9966 11.1323 18.2987 11.1323 18.632V20.0993H15.0654" stroke="white" stroke-width="1.5" stroke-miterlimit="10" stroke-linecap="square"/>
<path d="M12.8164 13.9112C12.8164 12.8238 13.6968 11.9424 14.7829 11.9424C15.869 11.9424 16.7495 12.8238 16.7495 13.9112C16.7495 14.9985 15.869 16.1612 14.7829 16.1612C13.6968 16.1612 12.8164 14.9985 12.8164 13.9112Z" stroke="white" stroke-width="1.5" stroke-miterlimit="10" stroke-linecap="square"/>
<path d="M16.4729 19.2538L17.3157 20.0976L19.2822 18.1288" stroke="white" stroke-width="1.5" stroke-miterlimit="10" stroke-linecap="square"/>
<path d="M1.68618 20.3103C0.299582 16.0428 1.03978 11.3694 3.67724 7.73923C6.31471 4.10907 10.5307 1.96094 15.0178 1.96094" stroke="white" stroke-opacity="0.2" stroke-width="2" stroke-linecap="round"/>
<path d="M28.2445 20.3103C29.6311 16.0428 28.8909 11.3694 26.2534 7.73923C23.616 4.10907 19.4 1.96094 14.9129 1.96094" stroke="white" stroke-width="2" stroke-linecap="round"/>
<path d="M28.2463 20.3107C26.3834 26.0863 20.9855 29.9966 14.9573 29.9966C8.92917 29.9966 3.55519 26.0863 1.69238 20.3107" stroke="white" stroke-width="2" stroke-linecap="round" stroke-linejoin="round"/>
<path d="M26.2546 7.73923C23.6172 4.10907 19.4012 1.96094 14.9141 1.96094" stroke="white" stroke-width="2" stroke-linecap="round"/>
</svg>
