<svg width="31" height="31" viewBox="0 0 31 31" fill="none" xmlns="http://www.w3.org/2000/svg">
<path d="M3.09814 15.2253C3.09814 8.6263 8.44771 3.27673 15.0467 3.27673C21.6458 3.27673 26.9953 8.6263 26.9953 15.2253C26.9953 21.8244 21.6458 27.1739 15.0467 27.1739C8.44771 27.1739 3.09814 21.8244 3.09814 15.2253Z" fill="#F3477A" fill-opacity="0.1"/>
<path d="M14.193 17.9072L12.4633 18.8174L12.9516 15.9663L10.8826 13.9471L13.7419 13.5311L15.0206 10.9377L16.2993 13.5311L19.1586 13.9471L17.9172 15.1584" stroke="white" stroke-width="1.5" stroke-miterlimit="10" stroke-linecap="square"/>
<path d="M19.5738 19.0222H15.8496" stroke="white" stroke-width="1.5" stroke-miterlimit="10" stroke-linecap="square"/>
<path d="M19.5702 16.9489H15.8459" stroke="white" stroke-width="1.5" stroke-miterlimit="10" stroke-linecap="square"/>
<path d="M1.77602 19.4783C0.389425 15.2108 1.12962 10.5374 3.76709 6.9072C6.40456 3.27704 10.6205 1.12891 15.1076 1.12891" stroke="#E96AC9" stroke-width="2" stroke-linecap="round"/>
<path d="M28.3336 19.4783C29.7202 15.2108 28.98 10.5374 26.3425 6.9072C23.7051 3.27704 19.4891 1.12891 15.002 1.12891" stroke="white" stroke-width="2" stroke-linecap="round"/>
<path d="M28.3354 19.4786C26.4726 25.2542 21.0746 29.1646 15.0465 29.1646C9.01828 29.1646 3.6443 25.2542 1.78149 19.4786" stroke="#E96AC9" stroke-width="2" stroke-linecap="round" stroke-linejoin="round"/>
<path d="M26.344 6.9072C23.7065 3.27704 19.4906 1.12891 15.0035 1.12891" stroke="white" stroke-width="2" stroke-linecap="round"/>
</svg>
