<svg width="25" height="25" viewBox="0 0 25 25" fill="none" xmlns="http://www.w3.org/2000/svg">
<path d="M0 4C0 1.79086 1.79086 0 4 0H20.244C22.4532 0 24.244 1.79086 24.244 4V20.244C24.244 22.4532 22.4532 24.244 20.244 24.244H4C1.79086 24.244 0 22.4532 0 20.244V4Z" fill="white"/>
<path d="M10.5986 15.9092C10.5416 16.0658 10.3938 16.1629 10.2364 16.1629C10.1926 16.1629 10.1481 16.1555 10.1046 16.1396C9.90454 16.0668 9.80138 15.8456 9.87418 15.6456L10.1491 14.8903C9.70566 14.6525 9.30112 14.3511 8.94811 13.9983L7.76938 17.2368C7.72404 17.3612 7.74579 17.5001 7.82691 17.6048C7.90804 17.7094 8.03721 17.7652 8.169 17.7522L9.56739 17.6156L10.5507 18.619C10.624 18.6938 10.7236 18.7347 10.826 18.7347C10.8532 18.7347 10.8804 18.7318 10.9075 18.726C11.037 18.698 11.1429 18.6056 11.1882 18.4811L12.2785 15.4854C11.7823 15.4591 11.3048 15.3613 10.8559 15.2025L10.5986 15.9092Z" fill="#F3477A"/>
<path d="M17.3349 17.2368L16.1562 13.9983C15.8031 14.3511 15.3986 14.6525 14.9551 14.8903L15.23 15.6456C15.3028 15.8456 15.1998 16.0667 14.9997 16.1396C14.9562 16.1555 14.9116 16.1629 14.8678 16.1629C14.7104 16.1629 14.5626 16.0658 14.5056 15.9092L14.2483 15.2025C13.7994 15.3613 13.3219 15.4591 12.8257 15.4854L13.9159 18.4811C13.9613 18.6056 14.0673 18.698 14.1966 18.726C14.2238 18.7318 14.2511 18.7347 14.2782 18.7347C14.3806 18.7347 14.4802 18.6938 14.5535 18.619L15.5368 17.6156L16.9352 17.7522C17.067 17.7651 17.1962 17.7094 17.2773 17.6048C17.3585 17.5001 17.3802 17.3612 17.3349 17.2368Z" fill="#F3477A"/>
<path d="M12.8855 9.84911L12.5527 9.1748L12.2199 9.84911C12.1637 9.96281 12.0552 10.0417 11.9297 10.06L11.1855 10.1681L11.724 10.693C11.8149 10.7816 11.8563 10.9091 11.8349 11.0341L11.7078 11.7753L12.3734 11.4254C12.4856 11.3663 12.6197 11.3663 12.7321 11.4254L13.3977 11.7753L13.2705 11.0341C13.2491 10.9091 13.2905 10.7816 13.3813 10.693L13.9198 10.1681L13.1757 10.06C13.0502 10.0417 12.9416 9.96281 12.8855 9.84911Z" fill="#F3477A"/>
<path d="M12.5518 6.0625C10.1641 6.0625 8.22168 8.00496 8.22168 10.3926C8.22168 12.7803 10.1641 14.7227 12.5518 14.7227C14.9394 14.7227 16.8818 12.7802 16.8818 10.3926C16.8818 8.00496 14.9394 6.0625 12.5518 6.0625ZM15.0162 10.1757L14.0637 11.1043L14.2886 12.4155C14.3133 12.5601 14.2538 12.7062 14.1352 12.7925C14.068 12.8413 13.9885 12.8661 13.9086 12.8661C13.8473 12.8661 13.7857 12.8514 13.7292 12.8219L12.5518 12.2028L11.3742 12.8219C11.2443 12.8901 11.087 12.8787 10.9683 12.7925C10.8496 12.7062 10.7901 12.5601 10.8149 12.4155L11.0398 11.1043L10.0872 10.1757C9.98217 10.0733 9.94427 9.92016 9.98972 9.78063C10.035 9.64102 10.1556 9.5394 10.3008 9.51822L11.6174 9.32697L12.2061 8.13404C12.2711 8.00245 12.4051 7.9192 12.5518 7.9192C12.6984 7.9192 12.8324 8.00245 12.8974 8.13404L13.4861 9.32697L14.8026 9.51832C14.9478 9.5394 15.0684 9.64111 15.1138 9.78063C15.1591 9.92016 15.1213 10.0733 15.0162 10.1757Z" fill="#F3477A"/>
</svg>
