<svg id="Слой_1" data-name="Слой 1" xmlns="http://www.w3.org/2000/svg" xmlns:xlink="http://www.w3.org/1999/xlink" viewBox="0 0 22 22"><defs><style>.cls-1{fill:#ffe595;}.cls-1,.cls-6{fill-rule:evenodd;}.cls-2{fill:#eeb39d;}.cls-3{fill:url(#Безымянный_градиент);}.cls-4{fill:url(#Безымянный_градиент_2);}.cls-5{fill:url(#Безымянный_градиент_3);}.cls-6{fill:url(#Безымянный_градиент_4);}.cls-7{fill:url(#Безымянный_градиент_5);}.cls-8{fill:url(#Безымянный_градиент_6);}.cls-9{fill:url(#Безымянный_градиент_7);}.cls-10{fill:url(#Безымянный_градиент_8);}.cls-11{fill:url(#Безымянный_градиент_9);}.cls-12{fill:url(#Безымянный_градиент_10);}.cls-13{fill:url(#Безымянный_градиент_11);}.cls-14{fill:url(#Безымянный_градиент_12);}.cls-15{fill:url(#Безымянный_градиент_13);}.cls-16{fill:url(#Безымянный_градиент_14);}.cls-17{fill:url(#Безымянный_градиент_15);}.cls-18{fill:url(#Безымянный_градиент_16);}.cls-19{fill:url(#Безымянный_градиент_17);}.cls-20{fill:#ffe9da;}</style><radialGradient id="Безымянный_градиент" cx="-728.67" cy="1343.74" r="1" gradientTransform="matrix(-0.21, 1.98, 1.25, 0.13, -1818.63, 1281.06)" gradientUnits="userSpaceOnUse"><stop offset="0" stop-color="#eaae96"/><stop offset="0.48" stop-color="#d28d74"/></radialGradient><radialGradient id="Безымянный_градиент_2" cx="-707.4" cy="1469.16" gradientTransform="matrix(-0.18, 1.83, 1.07, 0.1, -1680.95, 1154.34)" xlink:href="#Безымянный_градиент"/><radialGradient id="Безымянный_градиент_3" cx="-893.08" cy="704.27" r="1" gradientTransform="matrix(-1.18, 8.66, 7.07, 0.96, -6023.02, 7065.6)" gradientUnits="userSpaceOnUse"><stop offset="0" stop-color="#ffd6c6"/><stop offset="0.48" stop-color="#f7bea9"/></radialGradient><radialGradient id="Безымянный_градиент_4" cx="-874.66" cy="673.91" r="1" gradientTransform="matrix(0.63, 9.22, 8.22, -0.56, -4972.96, 8454.7)" gradientUnits="userSpaceOnUse"><stop offset="0" stop-color="#754d40"/><stop offset="0.56" stop-color="#552e22"/></radialGradient><radialGradient id="Безымянный_градиент_5" cx="-816.07" cy="898.62" r="1" gradientTransform="matrix(0.45, 4.91, 2.62, -0.24, -1984.29, 4225.86)" gradientUnits="userSpaceOnUse"><stop offset="0" stop-color="#5c3724"/><stop offset="0.55" stop-color="#391e13"/></radialGradient><radialGradient id="Безымянный_градиент_6" cx="-777.78" cy="999.66" r="1" gradientTransform="matrix(-0.13, 2.96, 2.18, 0.1, -2279, 2213.87)" gradientUnits="userSpaceOnUse"><stop offset="0" stop-color="#693626"/><stop offset="0.52" stop-color="#381b12"/><stop offset="1" stop-color="#391e13"/></radialGradient><radialGradient id="Безымянный_градиент_7" cx="-797.98" cy="690.94" r="1" gradientTransform="matrix(0.41, 4.29, 6.96, -0.66, -4471.95, 3887.47)" gradientUnits="userSpaceOnUse"><stop offset="0" stop-color="#6d4833"/><stop offset="0.45" stop-color="#432319"/></radialGradient><radialGradient id="Безымянный_градиент_8" cx="-827.01" cy="970.18" r="1" gradientTransform="matrix(-0.14, 4.4, 2.33, 0.07, -2360.56, 3572.17)" xlink:href="#Безымянный_градиент_6"/><radialGradient id="Безымянный_градиент_9" cx="-762.96" cy="1166.56" r="1" gradientTransform="matrix(-0.09, 2.77, 1.57, 0.05, -1887.21, 2055.42)" xlink:href="#Безымянный_градиент_6"/><radialGradient id="Безымянный_градиент_10" cx="-717.64" cy="843.49" r="1" gradientTransform="matrix(0.19, 2.63, 3.19, -0.23, -2541.18, 2083.28)" xlink:href="#Безымянный_градиент_7"/><radialGradient id="Безымянный_градиент_11" cx="-746.26" cy="778.03" r="1" gradientTransform="matrix(0.24, 3.06, 4.15, -0.33, -3032.89, 2545.28)" xlink:href="#Безымянный_градиент_7"/><radialGradient id="Безымянный_градиент_12" cx="-485.28" cy="2133.37" r="1" gradientTransform="matrix(0.04, 1.21, 0.58, -0.02, -1201.57, 644.15)" gradientUnits="userSpaceOnUse"><stop offset="0" stop-color="#373c66"/><stop offset="0.57" stop-color="#171129"/></radialGradient><radialGradient id="Безымянный_градиент_13" cx="-475" cy="2216.78" r="1" gradientTransform="matrix(0.04, 1.18, 0.55, -0.02, -1184.73, 616.26)" xlink:href="#Безымянный_градиент_12"/><linearGradient id="Безымянный_градиент_14" x1="13.34" y1="41.89" x2="13.27" y2="41.22" gradientTransform="matrix(1, 0, 0, -1, 0, 52)" gradientUnits="userSpaceOnUse"><stop offset="0" stop-color="#754940"/><stop offset="0.68" stop-color="#3c1b14"/></linearGradient><linearGradient id="Безымянный_градиент_15" x1="9.71" y1="42.33" x2="9.74" y2="41.78" xlink:href="#Безымянный_градиент_14"/><radialGradient id="Безымянный_градиент_16" cx="-527.35" cy="2142.18" r="1" gradientTransform="matrix(0, 1.25, 0.59, 0, -1247.11, 673.98)" gradientUnits="userSpaceOnUse"><stop offset="0" stop-color="#ffeee4"/><stop offset="0.45" stop-color="#ffdcc8"/><stop offset="1" stop-color="#f0d5c5"/></radialGradient><radialGradient id="Безымянный_градиент_17" cx="-779.52" cy="745.59" r="1" gradientTransform="matrix(0.29, 3.7, 4.9, -0.38, -3421.53, 3170.98)" xlink:href="#Безымянный_градиент_7"/></defs><path class="cls-1" d="M11.17,22.16a11,11,0,1,0-11-11A11,11,0,0,0,11.17,22.16Z" transform="translate(-0.17 -0.16)"/><path class="cls-2" d="M12.29,14.25a1.1,1.1,0,0,1-1,.26c-.46-.07-1-.69-1.28-.23s1.25,1.46,2.38.81,1-1.2.83-1.34S12.71,13.8,12.29,14.25Z" transform="translate(-0.17 -0.16)"/><path class="cls-2" d="M12.29,14.25a1.1,1.1,0,0,1-1,.26c-.46-.07-1-.69-1.28-.23s1.25,1.46,2.38.81,1-1.2.83-1.34S12.71,13.8,12.29,14.25Z" transform="translate(-0.17 -0.16)"/><path class="cls-3" d="M5.26,11.69c.19-.69,1.14-.8,1.59-.78h.58l-.07,1.32-.08,1.32H6.77a3.59,3.59,0,0,1-.92-.45A1.3,1.3,0,0,1,5.26,11.69Z" transform="translate(-0.17 -0.16)"/><path class="cls-4" d="M17.48,12.45c-.13.5-.92.86-1.3,1h-.37V12.21l.06-1.13.25-.08.51.08A1,1,0,0,1,17.48,12.45Z" transform="translate(-0.17 -0.16)"/><path class="cls-5" d="M8.35,6.07c-1.52.78-1.67,3.21-1.56,4.33v4.33c0,1.22.34.89,2,1.89s7.19.07,7.34-.82,0-4.51,0-5.6-.26-2.93-1.22-3.78S10.24,5.1,8.35,6.07Z" transform="translate(-0.17 -0.16)"/><path class="cls-6" d="M6.77,11.94v6.78h0a.85.85,0,0,0,.46.73l.39.21c1.11.53,3.35,1.6,3.51,1.61h.41a2.17,2.17,0,0,0,.79-.18c1.05-.47,2.78-1.27,3.49-1.64h0c.29-.16.33-.55.34-.88,0-1.42.06-5.48,0-7.5L16.08,14c0,.2,0,.6-.26.63h-.11a9,9,0,0,1-1.07.1.89.89,0,0,1-.79-.44l0,0a1.48,1.48,0,0,1-.17-.56c0-.29-.46-.52-.9-.24l-.38.26a2,2,0,0,1-.82.43.84.84,0,0,1-.74-.27.94.94,0,0,0-.12-.09.73.73,0,0,0-1.07.47c-.16.64-.51.6-1,.55l-.2,0a4,4,0,0,1-.54-.08,2.25,2.25,0,0,0-.44-.07H7.38c-.18,0-.38,0-.42-.19a.66.66,0,0,1,0-.18c0-.22,0-1.33-.07-2.29,0-.47,0-.91,0-1.18Zm4.48,2.59a1.08,1.08,0,0,0,1-.26c.43-.45.69-.63.89-.5s.31.68-.82,1.34S9.68,14.76,10,14.3c.18-.3.47-.14.78,0A1.58,1.58,0,0,0,11.25,14.53Z" transform="translate(-0.17 -0.16)"/><path class="cls-7" d="M6.87,10.8c0-.7,0-1.08,0-1.23a.5.5,0,0,0,0-.12,5.16,5.16,0,0,1,.75-2.8c.76-.87-.19-1.2-.42-1.17s-1.2.21-1.5,1.86a8.65,8.65,0,0,0,.51,3.56A.3.3,0,0,0,6.87,10.8Z" transform="translate(-0.17 -0.16)"/><path class="cls-8" d="M7.87,7A6.51,6.51,0,0,0,7,9.58a.22.22,0,0,1-.4.08c-1.12-2.47-.26-3.22,0-3.55S8.85,5.42,7.87,7Z" transform="translate(-0.17 -0.16)"/><path class="cls-9" d="M10.85,5c0,1.39-.08,1.17-1.79,2.21S5.78,6.42,5.82,5A2.49,2.49,0,0,1,8.33,2.45,2.52,2.52,0,0,1,10.85,5Z" transform="translate(-0.17 -0.16)"/><path class="cls-10" d="M17.2,7.57c-.11-1.33-.82-1.72-1.18-1.76H16c-.82-.15-1.32,1.07-.65,1.14s.76,2.21.81,3.29v.46a.29.29,0,0,0,.58.09A10.25,10.25,0,0,0,17.2,7.57Z" transform="translate(-0.17 -0.16)"/><path class="cls-11" d="M17,7.74a5,5,0,0,1-.41,1.49.31.31,0,0,1-.61-.1c0-.23,0-.43-.07-.54-.06-.37-.31-.92-.39-1.3s.25-1.33.79-1.16S17,7,17,7.74Z" transform="translate(-0.17 -0.16)"/><path class="cls-12" d="M15.55,7.51a1.8,1.8,0,0,0,.69-2c-.45-1.28-2.61-.42-2.13.86l0,0C14.34,6.81,15.22,7.67,15.55,7.51Z" transform="translate(-0.17 -0.16)"/><path class="cls-13" d="M14.81,6.05a2,2,0,0,0-1.43-2.48C12.6,3.42,12.12,4.25,12,5c-.08.59-.09,1.15-.11,1.34s.68.66,1.08.71A1.44,1.44,0,0,0,14.81,6.05Z" transform="translate(-0.17 -0.16)"/><path class="cls-14" d="M10.26,11.15h0a.33.33,0,0,1,.33.33v.72a.33.33,0,0,1-.33.33h0a.33.33,0,0,1-.33-.33v-.72A.33.33,0,0,1,10.26,11.15Z" transform="translate(-0.17 -0.16)"/><path class="cls-15" d="M12.84,11.18h0a.31.31,0,0,1,.31.31v.72a.31.31,0,0,1-.31.32h0a.31.31,0,0,1-.31-.32v-.72A.31.31,0,0,1,12.84,11.18Z" transform="translate(-0.17 -0.16)"/><path class="cls-16" d="M12.66,9.93a.33.33,0,0,0-.39,0,.14.14,0,0,0,0,.11c0,.12.16.45.94.45a1.63,1.63,0,0,0,1.28-.73c.12-.13.13-.24.05-.24a3,3,0,0,1-.76.47A1,1,0,0,1,12.66,9.93Z" transform="translate(-0.17 -0.16)"/><path class="cls-17" d="M10.18,9.83a1.78,1.78,0,0,0-.91,0,3,3,0,0,0-.59.18c-.16.06-.12,0-.08-.09a1.86,1.86,0,0,1,1.07-.51c.39-.06,1.13,0,1.2.35S10.52,10,10.18,9.83Z" transform="translate(-0.17 -0.16)"/><path class="cls-18" d="M11.53,13.84a.49.49,0,0,1-.48-.43V13.2c.09-.53.22-1.57.31-1.79s.34,0,.41.13c.15.61.5,1.83.45,1.84a.21.21,0,0,0-.15.15C12.05,13.61,11.92,13.83,11.53,13.84Z" transform="translate(-0.17 -0.16)"/><path class="cls-19" d="M9.17,5.73A1.21,1.21,0,0,0,10.26,7.1a2.48,2.48,0,0,0,1.89-.4,4.43,4.43,0,0,0,.56-2.3,1.72,1.72,0,0,0-2.07-1.6C9.12,2.93,9.21,4.41,9.17,5.73Z" transform="translate(-0.17 -0.16)"/><ellipse class="cls-20" cx="11.45" cy="12.68" rx="0.16" ry="0.23"/></svg>